<svg xmlns="http://www.w3.org/2000/svg" version="1.1" xmlns:xlink="http://www.w3.org/1999/xlink" xmlns:svgjs="http://svgjs.dev/svgjs" width="1500" height="306" viewBox="0 0 1500 306"><g transform="matrix(1,0,0,1,-0.9090909090909918,0.12495729153090451)"><svg viewBox="0 0 396 81" data-background-color="#000000" preserveAspectRatio="xMidYMid meet" height="306" width="1500" xmlns="http://www.w3.org/2000/svg" xmlns:xlink="http://www.w3.org/1999/xlink"><g id="tight-bounds" transform="matrix(1,0,0,1,0.2400000000000091,-0.03307693011112178)"><svg viewBox="0 0 395.52 81.06615386022226" height="81.06615386022226" width="395.52"><g><svg viewBox="0 0 520.402417842315 106.66217251728555" height="81.06615386022226" width="395.52"><g transform="matrix(1,0,0,1,0,14.741298806658136)"><svg viewBox="0 0 395.52000000000004 77.17957490396928" height="77.17957490396928" width="395.52000000000004"><g id="textblocktransform"><svg viewBox="0 0 395.52000000000004 77.17957490396928" height="77.17957490396928" width="395.52000000000004" id="textblock"><g><svg viewBox="0 0 395.52000000000004 77.17957490396928" height="77.17957490396928" width="395.52000000000004"><g transform="matrix(1,0,0,1,0,0)"><svg width="395.52000000000004" viewBox="0.75 -37.5 195.24 38.1" height="77.17957490396928" data-palette-color="#ffffff"><path d="M0.75-34.45L25.35-34.45 24.85-30.4 15.3-30.4 15.3 0 10.55 0 10.55-30.4 0.75-30.4 0.75-34.45ZM50.5-13.95Q50.5-12.8 50.4-11.6L50.4-11.6 33.6-11.6Q33.9-7.25 35.8-5.2 37.7-3.15 40.7-3.15L40.7-3.15Q42.6-3.15 44.2-3.7 45.8-4.25 47.55-5.45L47.55-5.45 49.55-2.7Q45.35 0.6 40.35 0.6L40.35 0.6Q34.85 0.6 31.77-3 28.7-6.6 28.7-12.9L28.7-12.9Q28.7-17 30.02-20.18 31.35-23.35 33.82-25.15 36.3-26.95 39.65-26.95L39.65-26.95Q44.9-26.95 47.7-23.5 50.5-20.05 50.5-13.95L50.5-13.95ZM45.95-15L45.95-15.3Q45.95-19.2 44.4-21.25 42.85-23.3 39.75-23.3L39.75-23.3Q34.1-23.3 33.6-15L33.6-15 45.95-15ZM67.44-26.95Q69.8-26.95 71.75-26.28 73.69-25.6 75.5-24.1L75.5-24.1 73.3-21.2Q71.89-22.2 70.57-22.68 69.25-23.15 67.64-23.15L67.64-23.15Q64.44-23.15 62.67-20.6 60.89-18.05 60.89-13.05L60.89-13.05Q60.89-8.05 62.64-5.68 64.39-3.3 67.64-3.3L67.64-3.3Q69.19-3.3 70.5-3.78 71.8-4.25 73.39-5.3L73.39-5.3 75.5-2.3Q71.89 0.6 67.44 0.6L67.44 0.6Q62.09 0.6 59.02-3 55.95-6.6 55.95-12.95L55.95-12.95Q55.95-17.15 57.34-20.3 58.74-23.45 61.32-25.2 63.89-26.95 67.44-26.95L67.44-26.95ZM94.14-26.95Q97.74-26.95 99.77-24.8 101.79-22.65 101.79-18.9L101.79-18.9 101.79 0 97.19 0 97.19-18.25Q97.19-21.05 96.12-22.2 95.04-23.35 92.99-23.35L92.99-23.35Q90.94-23.35 89.34-22.15 87.74-20.95 86.34-18.75L86.34-18.75 86.34 0 81.74 0 81.74-36.9 86.34-37.4 86.34-22.7Q89.44-26.95 94.14-26.95L94.14-26.95ZM135.29 0L130.54 0 130.54-16.15 116.04-16.15 116.04 0 111.29 0 111.29-34.45 116.04-34.45 116.04-20.05 130.54-20.05 130.54-34.45 135.29-34.45 135.29 0ZM164.64-26.35L164.64 0 160.69 0 160.34-4.1Q158.84-1.65 156.89-0.53 154.94 0.6 152.14 0.6L152.14 0.6Q148.69 0.6 146.74-1.5 144.79-3.6 144.79-7.45L144.79-7.45 144.79-26.35 149.39-26.35 149.39-7.95Q149.39-5.25 150.34-4.13 151.29-3 153.44-3L153.44-3Q157.29-3 160.04-7.55L160.04-7.55 160.04-26.35 164.64-26.35ZM186.19-26.95Q190.69-26.95 193.34-23.33 195.99-19.7 195.99-13.2L195.99-13.2Q195.99-9.1 194.74-5.98 193.49-2.85 191.14-1.13 188.79 0.6 185.64 0.6L185.64 0.6Q181.49 0.6 178.64-2.9L178.64-2.9 178.19 0 174.14 0 174.14-36.95 178.74-37.5 178.74-23.05Q181.59-26.95 186.19-26.95L186.19-26.95ZM184.54-3.05Q187.59-3.05 189.31-5.53 191.04-8 191.04-13.2L191.04-13.2Q191.04-18.55 189.44-20.93 187.84-23.3 184.89-23.3L184.89-23.3Q181.39-23.3 178.74-19.2L178.74-19.2 178.74-6.6Q179.79-4.95 181.31-4 182.84-3.05 184.54-3.05L184.54-3.05Z" opacity="1" transform="matrix(1,0,0,1,0,0)" fill="#ffffff" class="wordmark-text-0" data-fill-palette-color="primary" id="text-0"></path></svg></g></svg></g></svg></g></svg></g><g transform="matrix(1,0,0,1,413.7402453250295,0)"><svg viewBox="0 0 106.66217251728555 106.66217251728555" height="106.66217251728555" width="106.66217251728555"><g data-palette-color="#ffffff"><rect width="29.154327154724722" height="106.66217251728555" fill="#ffffff" stroke="transparent" data-fill-palette-color="accent" x="0" fill-opacity="1"></rect><rect width="29.154327154724722" height="106.66217251728555" fill="#ffffff" stroke="transparent" data-fill-palette-color="accent" x="35.554057505761854" fill-opacity="0.75"></rect><rect width="29.154327154724722" height="106.66217251728555" fill="#ffffff" stroke="transparent" data-fill-palette-color="accent" x="71.10811501152371" fill-opacity="0.5"></rect></g></svg></g></svg></g><defs></defs></svg><rect width="395.52" height="81.06615386022226" fill="none" stroke="none" visibility="hidden"></rect></g></svg></g></svg>